<mxfile host="app.diagrams.net" agent="Mozilla/5.0 (Windows NT 10.0; Win64; x64) AppleWebKit/537.36 (KHTML, like Gecko) Chrome/132.0.0.0 Safari/537.36" version="26.0.10">
  <diagram name="Página-1" id="BIlwbuL5rNhcRVNLRlJn">
    <mxGraphModel dx="1290" dy="557" grid="1" gridSize="10" guides="1" tooltips="1" connect="1" arrows="1" fold="1" page="1" pageScale="1" pageWidth="827" pageHeight="1169" math="0" shadow="0">
      <root>
        <mxCell id="0" />
        <mxCell id="1" parent="0" />
        <mxCell id="JQsbSqmrX66imm0wfQG0-4" value="Processo de envio e recebimento de dados" style="swimlane;horizontal=0;whiteSpace=wrap;html=1;" vertex="1" parent="1">
          <mxGeometry x="40" y="40" width="940" height="500" as="geometry">
            <mxRectangle x="40" y="40" width="40" height="260" as="alternateBounds" />
          </mxGeometry>
        </mxCell>
        <mxCell id="JQsbSqmrX66imm0wfQG0-6" style="edgeStyle=orthogonalEdgeStyle;rounded=0;orthogonalLoop=1;jettySize=auto;html=1;exitX=0.5;exitY=1;exitDx=0;exitDy=0;entryX=0.5;entryY=0;entryDx=0;entryDy=0;" edge="1" parent="JQsbSqmrX66imm0wfQG0-4" source="JQsbSqmrX66imm0wfQG0-2" target="JQsbSqmrX66imm0wfQG0-5">
          <mxGeometry relative="1" as="geometry" />
        </mxCell>
        <mxCell id="JQsbSqmrX66imm0wfQG0-2" value="Inicio de Processo" style="ellipse;whiteSpace=wrap;html=1;" vertex="1" parent="JQsbSqmrX66imm0wfQG0-4">
          <mxGeometry x="40" y="20" width="120" height="80" as="geometry" />
        </mxCell>
        <mxCell id="JQsbSqmrX66imm0wfQG0-8" style="edgeStyle=orthogonalEdgeStyle;rounded=0;orthogonalLoop=1;jettySize=auto;html=1;exitX=1;exitY=0.5;exitDx=0;exitDy=0;" edge="1" parent="JQsbSqmrX66imm0wfQG0-4" source="JQsbSqmrX66imm0wfQG0-5" target="JQsbSqmrX66imm0wfQG0-7">
          <mxGeometry relative="1" as="geometry" />
        </mxCell>
        <mxCell id="JQsbSqmrX66imm0wfQG0-10" style="edgeStyle=orthogonalEdgeStyle;rounded=0;orthogonalLoop=1;jettySize=auto;html=1;exitX=0.5;exitY=1;exitDx=0;exitDy=0;" edge="1" parent="JQsbSqmrX66imm0wfQG0-4" source="JQsbSqmrX66imm0wfQG0-5" target="JQsbSqmrX66imm0wfQG0-9">
          <mxGeometry relative="1" as="geometry" />
        </mxCell>
        <mxCell id="JQsbSqmrX66imm0wfQG0-5" value="Comanda do termo" style="rounded=0;whiteSpace=wrap;html=1;" vertex="1" parent="JQsbSqmrX66imm0wfQG0-4">
          <mxGeometry x="40" y="160" width="120" height="60" as="geometry" />
        </mxCell>
        <mxCell id="JQsbSqmrX66imm0wfQG0-12" style="edgeStyle=orthogonalEdgeStyle;rounded=0;orthogonalLoop=1;jettySize=auto;html=1;exitX=1;exitY=0.5;exitDx=0;exitDy=0;entryX=0;entryY=0.5;entryDx=0;entryDy=0;" edge="1" parent="JQsbSqmrX66imm0wfQG0-4" source="JQsbSqmrX66imm0wfQG0-7" target="JQsbSqmrX66imm0wfQG0-11">
          <mxGeometry relative="1" as="geometry" />
        </mxCell>
        <mxCell id="JQsbSqmrX66imm0wfQG0-7" value="Criar botão de upload" style="rounded=0;whiteSpace=wrap;html=1;" vertex="1" parent="JQsbSqmrX66imm0wfQG0-4">
          <mxGeometry x="220" y="160" width="120" height="60" as="geometry" />
        </mxCell>
        <mxCell id="JQsbSqmrX66imm0wfQG0-36" style="edgeStyle=orthogonalEdgeStyle;rounded=0;orthogonalLoop=1;jettySize=auto;html=1;exitX=0.5;exitY=1;exitDx=0;exitDy=0;entryX=0.5;entryY=0;entryDx=0;entryDy=0;" edge="1" parent="JQsbSqmrX66imm0wfQG0-4" source="JQsbSqmrX66imm0wfQG0-9" target="JQsbSqmrX66imm0wfQG0-35">
          <mxGeometry relative="1" as="geometry" />
        </mxCell>
        <mxCell id="JQsbSqmrX66imm0wfQG0-38" style="edgeStyle=orthogonalEdgeStyle;rounded=0;orthogonalLoop=1;jettySize=auto;html=1;entryX=0;entryY=0.5;entryDx=0;entryDy=0;" edge="1" parent="JQsbSqmrX66imm0wfQG0-4" source="JQsbSqmrX66imm0wfQG0-9" target="JQsbSqmrX66imm0wfQG0-37">
          <mxGeometry relative="1" as="geometry" />
        </mxCell>
        <mxCell id="JQsbSqmrX66imm0wfQG0-9" value="Criar 2 botões para donwload" style="rounded=0;whiteSpace=wrap;html=1;" vertex="1" parent="JQsbSqmrX66imm0wfQG0-4">
          <mxGeometry x="40" y="270" width="120" height="60" as="geometry" />
        </mxCell>
        <mxCell id="JQsbSqmrX66imm0wfQG0-27" style="edgeStyle=orthogonalEdgeStyle;rounded=0;orthogonalLoop=1;jettySize=auto;html=1;exitX=1;exitY=0.5;exitDx=0;exitDy=0;entryX=0;entryY=0.5;entryDx=0;entryDy=0;" edge="1" parent="JQsbSqmrX66imm0wfQG0-4" source="JQsbSqmrX66imm0wfQG0-11" target="JQsbSqmrX66imm0wfQG0-26">
          <mxGeometry relative="1" as="geometry" />
        </mxCell>
        <mxCell id="JQsbSqmrX66imm0wfQG0-11" value="Após clicar, abrir os arquivos a serem selecionados" style="rounded=0;whiteSpace=wrap;html=1;" vertex="1" parent="JQsbSqmrX66imm0wfQG0-4">
          <mxGeometry x="390" y="160" width="120" height="60" as="geometry" />
        </mxCell>
        <mxCell id="JQsbSqmrX66imm0wfQG0-19" value="PNG / JPG / JPEG / PDF" style="strokeWidth=2;html=1;shape=mxgraph.flowchart.document2;whiteSpace=wrap;size=0.25;" vertex="1" parent="JQsbSqmrX66imm0wfQG0-4">
          <mxGeometry x="400" y="40" width="100" height="60" as="geometry" />
        </mxCell>
        <mxCell id="JQsbSqmrX66imm0wfQG0-23" value="" style="endArrow=none;html=1;rounded=0;exitX=0.5;exitY=0;exitDx=0;exitDy=0;" edge="1" parent="JQsbSqmrX66imm0wfQG0-4" source="JQsbSqmrX66imm0wfQG0-11" target="JQsbSqmrX66imm0wfQG0-19">
          <mxGeometry width="50" height="50" relative="1" as="geometry">
            <mxPoint x="450" y="150" as="sourcePoint" />
            <mxPoint x="500" y="100" as="targetPoint" />
          </mxGeometry>
        </mxCell>
        <mxCell id="JQsbSqmrX66imm0wfQG0-29" style="edgeStyle=orthogonalEdgeStyle;rounded=0;orthogonalLoop=1;jettySize=auto;html=1;exitX=0.5;exitY=0;exitDx=0;exitDy=0;entryX=0.5;entryY=1;entryDx=0;entryDy=0;" edge="1" parent="JQsbSqmrX66imm0wfQG0-4" source="JQsbSqmrX66imm0wfQG0-26" target="JQsbSqmrX66imm0wfQG0-28">
          <mxGeometry relative="1" as="geometry" />
        </mxCell>
        <mxCell id="JQsbSqmrX66imm0wfQG0-30" value="NÃO" style="edgeLabel;html=1;align=center;verticalAlign=middle;resizable=0;points=[];" vertex="1" connectable="0" parent="JQsbSqmrX66imm0wfQG0-29">
          <mxGeometry x="-0.0533" y="-2" relative="1" as="geometry">
            <mxPoint x="-2" as="offset" />
          </mxGeometry>
        </mxCell>
        <mxCell id="JQsbSqmrX66imm0wfQG0-32" style="edgeStyle=orthogonalEdgeStyle;rounded=0;orthogonalLoop=1;jettySize=auto;html=1;exitX=0.5;exitY=1;exitDx=0;exitDy=0;entryX=0.5;entryY=0;entryDx=0;entryDy=0;" edge="1" parent="JQsbSqmrX66imm0wfQG0-4" source="JQsbSqmrX66imm0wfQG0-26" target="JQsbSqmrX66imm0wfQG0-31">
          <mxGeometry relative="1" as="geometry" />
        </mxCell>
        <mxCell id="JQsbSqmrX66imm0wfQG0-26" value="FORMATO CORRETO?" style="rhombus;whiteSpace=wrap;html=1;" vertex="1" parent="JQsbSqmrX66imm0wfQG0-4">
          <mxGeometry x="580" y="150" width="130" height="80" as="geometry" />
        </mxCell>
        <mxCell id="JQsbSqmrX66imm0wfQG0-28" value="ALERT - INSIRA UM FORMATO DE ARQUIVO VALIDO" style="rounded=0;whiteSpace=wrap;html=1;" vertex="1" parent="JQsbSqmrX66imm0wfQG0-4">
          <mxGeometry x="585" y="30" width="120" height="60" as="geometry" />
        </mxCell>
        <mxCell id="JQsbSqmrX66imm0wfQG0-34" style="edgeStyle=orthogonalEdgeStyle;rounded=0;orthogonalLoop=1;jettySize=auto;html=1;entryX=0;entryY=0.5;entryDx=0;entryDy=0;" edge="1" parent="JQsbSqmrX66imm0wfQG0-4" source="JQsbSqmrX66imm0wfQG0-31" target="JQsbSqmrX66imm0wfQG0-33">
          <mxGeometry relative="1" as="geometry" />
        </mxCell>
        <mxCell id="JQsbSqmrX66imm0wfQG0-31" value="ENVIO PARA A API" style="rounded=0;whiteSpace=wrap;html=1;" vertex="1" parent="JQsbSqmrX66imm0wfQG0-4">
          <mxGeometry x="585" y="280" width="120" height="120" as="geometry" />
        </mxCell>
        <mxCell id="JQsbSqmrX66imm0wfQG0-33" value="MUDAR A COR DO BOTÃO PARA UM ICONE VERDE DE ARQUIVO" style="rounded=0;whiteSpace=wrap;html=1;" vertex="1" parent="JQsbSqmrX66imm0wfQG0-4">
          <mxGeometry x="770" y="280" width="120" height="120" as="geometry" />
        </mxCell>
        <mxCell id="JQsbSqmrX66imm0wfQG0-35" value="Botão para download do termo" style="rounded=0;whiteSpace=wrap;html=1;" vertex="1" parent="JQsbSqmrX66imm0wfQG0-4">
          <mxGeometry x="40" y="410" width="120" height="60" as="geometry" />
        </mxCell>
        <mxCell id="JQsbSqmrX66imm0wfQG0-37" value="Botão para download de documentos" style="rounded=0;whiteSpace=wrap;html=1;" vertex="1" parent="JQsbSqmrX66imm0wfQG0-4">
          <mxGeometry x="220" y="270" width="120" height="60" as="geometry" />
        </mxCell>
      </root>
    </mxGraphModel>
  </diagram>
</mxfile>
